<svg width="108" height="31" viewBox="0 0 108 31" fill="none" xmlns="http://www.w3.org/2000/svg">
<path fill-rule="evenodd" clip-rule="evenodd" d="M0 8.56324V8.64305L18.4675 17.2066L37 8.61391V8.59234L18.4675 0L0 8.56324ZM6.6578 8.60335L18.4678 3.12713L30.279 8.60335L18.4675 14.0791L6.6578 8.60335ZM18.4675 20.5327L0 12.0974V15.2173L18.4675 23.672L37 15.1886V12.0683L18.4675 20.5327ZM18.4675 26.8604L0 18.4243V21.5442L18.4675 30L37 21.5155V18.3955L18.4675 26.8604Z" fill="white"/>
<path fill-rule="evenodd" clip-rule="evenodd" d="M103.835 15.4857C103.835 14.7796 103.71 14.1213 103.459 13.5106C103.208 12.9 102.866 12.3657 102.432 11.9077C101.998 11.4497 101.492 11.0919 100.914 10.8343C100.335 10.5767 99.7182 10.4478 99.0626 10.4478C98.407 10.4478 97.79 10.5767 97.2115 10.8343C96.633 11.0919 96.1268 11.4497 95.693 11.9077C95.2591 12.3657 94.9169 12.9 94.6662 13.5106C94.4155 14.1213 94.2902 14.7796 94.2902 15.4857C94.2902 16.1918 94.4155 16.8501 94.6662 17.4607C94.9169 18.0714 95.2591 18.6057 95.693 19.0637C96.1268 19.5217 96.633 19.8795 97.2115 20.1371C97.79 20.3948 98.407 20.5235 99.0626 20.5235C99.7182 20.5235 100.335 20.3948 100.914 20.1371C101.492 19.8795 101.998 19.5217 102.432 19.0637C102.866 18.6057 103.208 18.0714 103.459 17.4607C103.71 16.8501 103.835 16.1918 103.835 15.4857ZM108 15.4857C108 16.7261 107.769 17.8758 107.306 18.9349C106.843 19.994 106.207 20.91 105.397 21.6828C104.587 22.4557 103.637 23.0663 102.548 23.5148C101.458 23.9632 100.297 24.1874 99.0626 24.1874C97.8285 24.1874 96.6716 23.9632 95.5917 23.5148C94.5119 23.0663 93.5671 22.4509 92.7572 21.6685C91.9474 20.8861 91.311 19.9654 90.8483 18.9063C90.3855 17.8472 90.1541 16.707 90.1541 15.4857C90.1541 14.2835 90.3903 13.1528 90.8627 12.0937C91.3351 11.0346 91.9763 10.1091 92.7861 9.31717C93.596 8.52521 94.5409 7.90506 95.6207 7.45659C96.7005 7.00816 97.8478 6.78393 99.0626 6.78393C100.297 6.78393 101.458 7.00816 102.548 7.45659C103.637 7.90506 104.587 8.51568 105.397 9.28854C106.207 10.0614 106.843 10.9821 107.306 12.0508C107.769 13.1194 108 14.2644 108 15.4857ZM88.7079 23.6722C88.3801 23.8249 88.0089 23.9489 87.5944 24.0443C87.1798 24.1398 86.7508 24.1874 86.3073 24.1874C85.6902 24.1874 85.0973 24.1063 84.5284 23.9442C83.9596 23.782 83.4631 23.5196 83.0389 23.157C82.6147 22.7944 82.2772 22.3221 82.0265 21.7401C81.7759 21.1581 81.6505 20.4568 81.6505 19.6362V0H85.9023V18.9206C85.9023 19.6075 86.0421 20.0799 86.3217 20.3375C86.6013 20.5951 86.9339 20.7239 87.3196 20.7239C87.8016 20.7239 88.2644 20.5808 88.7079 20.2946V23.6722V23.6722ZM79.7705 7.18467L72.2503 26.8495C71.6912 28.3189 70.9584 29.378 70.0521 30.0268C69.1459 30.6756 68.0661 31 66.8127 31C66.6199 31 66.4078 30.9857 66.1764 30.9571C65.945 30.9284 65.7232 30.8855 65.5111 30.8283L64.1228 26.9926C64.4506 27.1453 64.7881 27.2645 65.1351 27.3504C65.4822 27.4363 65.81 27.4792 66.1185 27.4792C66.7741 27.4792 67.3719 27.3314 67.9118 27.0355C68.4517 26.7398 68.8663 26.1912 69.1555 25.3897L69.734 23.7294L63.284 7.18467H67.825L71.6719 17.8329L75.2873 7.18467H79.7705ZM62.2717 4.69437H51.3964V10.0185H62.1271V13.6251H51.3964V23.7581H47V0.88733H62.2717V4.69437Z" fill="white"/>
</svg>
